{
  "accessors": [
    {
      "bufferView": 2,
      "componentType": 5126,
      "count": 58010,
      "max": [
        12.191420555114746,
        21.978031158447266,
        46.53721618652344
      ],
      "min": [
        -11.514433860778809,
        -17.729604721069336,
        0.054962001740932465
      ],
      "type": "VEC3"
    },
    {
      "bufferView": 2,
      "byteOffset": 696120,
      "componentType": 5126,
      "count": 58010,
      "max": [
        1.0,
        0.999988317489624,
        0.9999985694885254
      ],
      "min": [
        -0.9999991655349731,
        -0.9999974966049194,
        -0.9999985694885254
      ],
      "type": "VEC3"
    },
    {
      "bufferView": 3,
      "componentType": 5126,
      "count": 58010,
      "max": [
        0.9999470710754395,
        0.9999986886978149,
        0.9999997019767761,
        1.0
      ],
      "min": [
        -0.9998905062675476,
        -0.9999783039093018,
        -0.9999873638153076,
        1.0
      ],
      "type": "VEC4"
    },
    {
      "bufferView": 1,
      "componentType": 5126,
      "count": 58010,
      "max": [
        0.9999369978904724,
        0.9999390244483948
      ],
      "min": [
        6.0999998822808266e-05,
        6.199999916134402e-05
      ],
      "type": "VEC2"
    },
    {
      "bufferView": 0,
      "componentType": 5125,
      "count": 146850,
      "type": "SCALAR"
    }
  ],
  "asset": {
    "extras": {
      "author": "Dystopia (https://sketchfab.com/Dystopia)",
      "license": "CC-BY-NC-4.0 (http://creativecommons.org/licenses/by-nc/4.0/)",
      "source": "https://sketchfab.com/3d-models/patan-dhoka-lion-nepal-heritage-e664a8fbed2d45f78fa132762800ba15",
      "title": "Patan Dhoka Lion - Nepal Heritage"
    },
    "generator": "Sketchfab-11.94.0",
    "version": "2.0"
  },
  "bufferViews": [
    {
      "buffer": 0,
      "byteLength": 587400,
      "name": "floatBufferViews",
      "target": 34963
    },
    {
      "buffer": 0,
      "byteLength": 464080,
      "byteOffset": 587400,
      "byteStride": 8,
      "name": "floatBufferViews",
      "target": 34962
    },
    {
      "buffer": 0,
      "byteLength": 1392240,
      "byteOffset": 1051480,
      "byteStride": 12,
      "name": "floatBufferViews",
      "target": 34962
    },
    {
      "buffer": 0,
      "byteLength": 928160,
      "byteOffset": 2443720,
      "byteStride": 16,
      "name": "floatBufferViews",
      "target": 34962
    }
  ],
  "buffers": [
    {
      "byteLength": 3371880,
      "uri": "scene.bin"
    }
  ],
  "images": [
    {
      "uri": "textures/Lion_stone_baseColor.jpeg"
    },
    {
      "uri": "textures/Lion_stone_metallicRoughness.png"
    },
    {
      "uri": "textures/Lion_stone_normal.jpeg"
    }
  ],
  "materials": [
    {
      "doubleSided": true,
      "name": "Lion_stone",
      "normalTexture": {
        "index": 2
      },
      "occlusionTexture": {
        "index": 1
      },
      "pbrMetallicRoughness": {
        "baseColorTexture": {
          "index": 0
        },
        "metallicFactor": 0.0,
        "metallicRoughnessTexture": {
          "index": 1
        }
      }
    }
  ],
  "meshes": [
    {
      "name": "Object_0",
      "primitives": [
        {
          "attributes": {
            "NORMAL": 1,
            "POSITION": 0,
            "TANGENT": 2,
            "TEXCOORD_0": 3
          },
          "indices": 4,
          "material": 0,
          "mode": 4
        }
      ]
    }
  ],
  "nodes": [
    {
      "children": [
        1
      ],
      "matrix": [
        1.0,
        0.0,
        0.0,
        0.0,
        0.0,
        2.220446049250313e-16,
        -1.0,
        0.0,
        0.0,
        1.0,
        2.220446049250313e-16,
        0.0,
        0.0,
        0.0,
        0.0,
        1.0
      ],
      "name": "Sketchfab_model"
    },
    {
      "children": [
        2
      ],
      "name": "Lion_stone.obj.cleaner.materialmerger.gles"
    },
    {
      "mesh": 0,
      "name": "Object_2"
    }
  ],
  "samplers": [
    {
      "magFilter": 9729,
      "minFilter": 9987,
      "wrapS": 10497,
      "wrapT": 10497
    }
  ],
  "scene": 0,
  "scenes": [
    {
      "name": "Sketchfab_Scene",
      "nodes": [
        0
      ]
    }
  ],
  "textures": [
    {
      "sampler": 0,
      "source": 0
    },
    {
      "sampler": 0,
      "source": 1
    },
    {
      "sampler": 0,
      "source": 2
    }
  ]
}
